<mxfile host="app.diagrams.net" modified="2023-03-12T02:34:55.106Z" agent="5.0 (Windows NT 10.0; Win64; x64) AppleWebKit/537.36 (KHTML, like Gecko) Chrome/110.0.0.0 Safari/537.36" etag="YrGNL0k9_W8_o-OL0gd5" version="21.0.6" type="github">
  <diagram name="第 1 页" id="de9EYRcHxoc9LtJmLU_C">
    <mxGraphModel dx="880" dy="452" grid="1" gridSize="10" guides="1" tooltips="1" connect="1" arrows="1" fold="1" page="1" pageScale="1" pageWidth="1300" pageHeight="1654" math="0" shadow="0">
      <root>
        <mxCell id="0" />
        <mxCell id="1" parent="0" />
        <mxCell id="q-_vaqqeLDXGKakdb1CM-1" value="qt事件传递过程：" style="text;html=1;strokeColor=none;fillColor=none;align=center;verticalAlign=middle;whiteSpace=wrap;rounded=0;" vertex="1" parent="1">
          <mxGeometry x="80" y="50" width="130" height="50" as="geometry" />
        </mxCell>
        <mxCell id="q-_vaqqeLDXGKakdb1CM-2" value="" style="rounded=0;whiteSpace=wrap;html=1;" vertex="1" parent="1">
          <mxGeometry x="260" y="70" width="450" height="240" as="geometry" />
        </mxCell>
        <mxCell id="q-_vaqqeLDXGKakdb1CM-3" value="" style="rounded=0;whiteSpace=wrap;html=1;" vertex="1" parent="1">
          <mxGeometry x="280" y="90" width="250" height="120" as="geometry" />
        </mxCell>
        <mxCell id="q-_vaqqeLDXGKakdb1CM-4" value="sub2" style="rounded=0;whiteSpace=wrap;html=1;" vertex="1" parent="1">
          <mxGeometry x="300" y="110" width="100" height="40" as="geometry" />
        </mxCell>
        <mxCell id="q-_vaqqeLDXGKakdb1CM-5" value="widget" style="text;html=1;strokeColor=none;fillColor=none;align=center;verticalAlign=middle;whiteSpace=wrap;rounded=0;" vertex="1" parent="1">
          <mxGeometry x="580" y="250" width="60" height="30" as="geometry" />
        </mxCell>
        <mxCell id="q-_vaqqeLDXGKakdb1CM-6" value="sub1" style="text;html=1;strokeColor=none;fillColor=none;align=center;verticalAlign=middle;whiteSpace=wrap;rounded=0;" vertex="1" parent="1">
          <mxGeometry x="440" y="160" width="60" height="30" as="geometry" />
        </mxCell>
        <mxCell id="q-_vaqqeLDXGKakdb1CM-7" value="sub2" style="text;html=1;strokeColor=none;fillColor=none;align=center;verticalAlign=middle;whiteSpace=wrap;rounded=0;" vertex="1" parent="1">
          <mxGeometry x="223" y="362" width="60" height="30" as="geometry" />
        </mxCell>
        <mxCell id="q-_vaqqeLDXGKakdb1CM-9" value="sub1" style="text;html=1;strokeColor=none;fillColor=none;align=center;verticalAlign=middle;whiteSpace=wrap;rounded=0;" vertex="1" parent="1">
          <mxGeometry x="554" y="362" width="60" height="30" as="geometry" />
        </mxCell>
        <mxCell id="q-_vaqqeLDXGKakdb1CM-10" value="最顶层控件widget" style="text;html=1;strokeColor=none;fillColor=none;align=center;verticalAlign=middle;whiteSpace=wrap;rounded=0;" vertex="1" parent="1">
          <mxGeometry x="739" y="367" width="130" height="20" as="geometry" />
        </mxCell>
        <mxCell id="q-_vaqqeLDXGKakdb1CM-11" value="" style="shape=table;startSize=0;container=1;collapsible=0;childLayout=tableLayout;align=left;" vertex="1" parent="1">
          <mxGeometry x="178" y="402" width="160" height="130" as="geometry" />
        </mxCell>
        <mxCell id="q-_vaqqeLDXGKakdb1CM-12" value="" style="shape=tableRow;horizontal=0;startSize=0;swimlaneHead=0;swimlaneBody=0;strokeColor=inherit;top=0;left=0;bottom=0;right=0;collapsible=0;dropTarget=0;fillColor=none;points=[[0,0.5],[1,0.5]];portConstraint=eastwest;" vertex="1" parent="q-_vaqqeLDXGKakdb1CM-11">
          <mxGeometry width="160" height="43" as="geometry" />
        </mxCell>
        <mxCell id="q-_vaqqeLDXGKakdb1CM-13" value="控件：eventFilter()" style="shape=partialRectangle;html=1;whiteSpace=wrap;connectable=0;strokeColor=inherit;overflow=hidden;fillColor=none;top=0;left=0;bottom=0;right=0;pointerEvents=1;align=left;" vertex="1" parent="q-_vaqqeLDXGKakdb1CM-12">
          <mxGeometry width="160" height="43" as="geometry">
            <mxRectangle width="160" height="43" as="alternateBounds" />
          </mxGeometry>
        </mxCell>
        <mxCell id="q-_vaqqeLDXGKakdb1CM-14" value="" style="shape=tableRow;horizontal=0;startSize=0;swimlaneHead=0;swimlaneBody=0;strokeColor=inherit;top=0;left=0;bottom=0;right=0;collapsible=0;dropTarget=0;fillColor=none;points=[[0,0.5],[1,0.5]];portConstraint=eastwest;" vertex="1" parent="q-_vaqqeLDXGKakdb1CM-11">
          <mxGeometry y="43" width="160" height="44" as="geometry" />
        </mxCell>
        <mxCell id="q-_vaqqeLDXGKakdb1CM-15" value="控件：event()" style="shape=partialRectangle;html=1;whiteSpace=wrap;connectable=0;strokeColor=inherit;overflow=hidden;fillColor=none;top=0;left=0;bottom=0;right=0;pointerEvents=1;align=left;" vertex="1" parent="q-_vaqqeLDXGKakdb1CM-14">
          <mxGeometry width="160" height="44" as="geometry">
            <mxRectangle width="160" height="44" as="alternateBounds" />
          </mxGeometry>
        </mxCell>
        <mxCell id="q-_vaqqeLDXGKakdb1CM-16" value="" style="shape=tableRow;horizontal=0;startSize=0;swimlaneHead=0;swimlaneBody=0;strokeColor=inherit;top=0;left=0;bottom=0;right=0;collapsible=0;dropTarget=0;fillColor=none;points=[[0,0.5],[1,0.5]];portConstraint=eastwest;" vertex="1" parent="q-_vaqqeLDXGKakdb1CM-11">
          <mxGeometry y="87" width="160" height="43" as="geometry" />
        </mxCell>
        <mxCell id="q-_vaqqeLDXGKakdb1CM-17" value="控件：具体事件处理函数&lt;br&gt;如：&amp;nbsp;&lt;span style=&quot;background-color: initial;&quot;&gt;mousePressEvent()&lt;/span&gt;" style="shape=partialRectangle;html=1;whiteSpace=wrap;connectable=0;strokeColor=inherit;overflow=hidden;fillColor=none;top=0;left=0;bottom=0;right=0;pointerEvents=1;align=left;" vertex="1" parent="q-_vaqqeLDXGKakdb1CM-16">
          <mxGeometry width="160" height="43" as="geometry">
            <mxRectangle width="160" height="43" as="alternateBounds" />
          </mxGeometry>
        </mxCell>
        <mxCell id="q-_vaqqeLDXGKakdb1CM-18" value="" style="shape=table;startSize=0;container=1;collapsible=0;childLayout=tableLayout;align=left;" vertex="1" parent="1">
          <mxGeometry x="494" y="402" width="160" height="130" as="geometry" />
        </mxCell>
        <mxCell id="q-_vaqqeLDXGKakdb1CM-19" value="" style="shape=tableRow;horizontal=0;startSize=0;swimlaneHead=0;swimlaneBody=0;strokeColor=inherit;top=0;left=0;bottom=0;right=0;collapsible=0;dropTarget=0;fillColor=none;points=[[0,0.5],[1,0.5]];portConstraint=eastwest;" vertex="1" parent="q-_vaqqeLDXGKakdb1CM-18">
          <mxGeometry width="160" height="43" as="geometry" />
        </mxCell>
        <mxCell id="q-_vaqqeLDXGKakdb1CM-20" value="控件：eventFilter()" style="shape=partialRectangle;html=1;whiteSpace=wrap;connectable=0;strokeColor=inherit;overflow=hidden;fillColor=none;top=0;left=0;bottom=0;right=0;pointerEvents=1;align=left;" vertex="1" parent="q-_vaqqeLDXGKakdb1CM-19">
          <mxGeometry width="160" height="43" as="geometry">
            <mxRectangle width="160" height="43" as="alternateBounds" />
          </mxGeometry>
        </mxCell>
        <mxCell id="q-_vaqqeLDXGKakdb1CM-21" value="" style="shape=tableRow;horizontal=0;startSize=0;swimlaneHead=0;swimlaneBody=0;strokeColor=inherit;top=0;left=0;bottom=0;right=0;collapsible=0;dropTarget=0;fillColor=none;points=[[0,0.5],[1,0.5]];portConstraint=eastwest;" vertex="1" parent="q-_vaqqeLDXGKakdb1CM-18">
          <mxGeometry y="43" width="160" height="44" as="geometry" />
        </mxCell>
        <mxCell id="q-_vaqqeLDXGKakdb1CM-22" value="控件：event()" style="shape=partialRectangle;html=1;whiteSpace=wrap;connectable=0;strokeColor=inherit;overflow=hidden;fillColor=none;top=0;left=0;bottom=0;right=0;pointerEvents=1;align=left;" vertex="1" parent="q-_vaqqeLDXGKakdb1CM-21">
          <mxGeometry width="160" height="44" as="geometry">
            <mxRectangle width="160" height="44" as="alternateBounds" />
          </mxGeometry>
        </mxCell>
        <mxCell id="q-_vaqqeLDXGKakdb1CM-23" value="" style="shape=tableRow;horizontal=0;startSize=0;swimlaneHead=0;swimlaneBody=0;strokeColor=inherit;top=0;left=0;bottom=0;right=0;collapsible=0;dropTarget=0;fillColor=none;points=[[0,0.5],[1,0.5]];portConstraint=eastwest;" vertex="1" parent="q-_vaqqeLDXGKakdb1CM-18">
          <mxGeometry y="87" width="160" height="43" as="geometry" />
        </mxCell>
        <mxCell id="q-_vaqqeLDXGKakdb1CM-24" value="控件：具体事件处理函数&lt;br&gt;如：&amp;nbsp;&lt;span style=&quot;background-color: initial;&quot;&gt;mousePressEvent()&lt;/span&gt;" style="shape=partialRectangle;html=1;whiteSpace=wrap;connectable=0;strokeColor=inherit;overflow=hidden;fillColor=none;top=0;left=0;bottom=0;right=0;pointerEvents=1;align=left;" vertex="1" parent="q-_vaqqeLDXGKakdb1CM-23">
          <mxGeometry width="160" height="43" as="geometry">
            <mxRectangle width="160" height="43" as="alternateBounds" />
          </mxGeometry>
        </mxCell>
        <mxCell id="q-_vaqqeLDXGKakdb1CM-25" value="" style="shape=table;startSize=0;container=1;collapsible=0;childLayout=tableLayout;align=left;" vertex="1" parent="1">
          <mxGeometry x="724" y="402" width="160" height="173" as="geometry" />
        </mxCell>
        <mxCell id="q-_vaqqeLDXGKakdb1CM-37" style="shape=tableRow;horizontal=0;startSize=0;swimlaneHead=0;swimlaneBody=0;strokeColor=inherit;top=0;left=0;bottom=0;right=0;collapsible=0;dropTarget=0;fillColor=none;points=[[0,0.5],[1,0.5]];portConstraint=eastwest;" vertex="1" parent="q-_vaqqeLDXGKakdb1CM-25">
          <mxGeometry width="160" height="43" as="geometry" />
        </mxCell>
        <mxCell id="q-_vaqqeLDXGKakdb1CM-38" value="QApplication::eventFilter" style="shape=partialRectangle;html=1;whiteSpace=wrap;connectable=0;strokeColor=inherit;overflow=hidden;fillColor=none;top=0;left=0;bottom=0;right=0;pointerEvents=1;align=left;" vertex="1" parent="q-_vaqqeLDXGKakdb1CM-37">
          <mxGeometry width="160" height="43" as="geometry">
            <mxRectangle width="160" height="43" as="alternateBounds" />
          </mxGeometry>
        </mxCell>
        <mxCell id="q-_vaqqeLDXGKakdb1CM-26" value="" style="shape=tableRow;horizontal=0;startSize=0;swimlaneHead=0;swimlaneBody=0;strokeColor=inherit;top=0;left=0;bottom=0;right=0;collapsible=0;dropTarget=0;fillColor=none;points=[[0,0.5],[1,0.5]];portConstraint=eastwest;" vertex="1" parent="q-_vaqqeLDXGKakdb1CM-25">
          <mxGeometry y="43" width="160" height="43" as="geometry" />
        </mxCell>
        <mxCell id="q-_vaqqeLDXGKakdb1CM-27" value="控件：eventFilter()" style="shape=partialRectangle;html=1;whiteSpace=wrap;connectable=0;strokeColor=inherit;overflow=hidden;fillColor=none;top=0;left=0;bottom=0;right=0;pointerEvents=1;align=left;" vertex="1" parent="q-_vaqqeLDXGKakdb1CM-26">
          <mxGeometry width="160" height="43" as="geometry">
            <mxRectangle width="160" height="43" as="alternateBounds" />
          </mxGeometry>
        </mxCell>
        <mxCell id="q-_vaqqeLDXGKakdb1CM-28" value="" style="shape=tableRow;horizontal=0;startSize=0;swimlaneHead=0;swimlaneBody=0;strokeColor=inherit;top=0;left=0;bottom=0;right=0;collapsible=0;dropTarget=0;fillColor=none;points=[[0,0.5],[1,0.5]];portConstraint=eastwest;" vertex="1" parent="q-_vaqqeLDXGKakdb1CM-25">
          <mxGeometry y="86" width="160" height="44" as="geometry" />
        </mxCell>
        <mxCell id="q-_vaqqeLDXGKakdb1CM-29" value="控件：event()" style="shape=partialRectangle;html=1;whiteSpace=wrap;connectable=0;strokeColor=inherit;overflow=hidden;fillColor=none;top=0;left=0;bottom=0;right=0;pointerEvents=1;align=left;" vertex="1" parent="q-_vaqqeLDXGKakdb1CM-28">
          <mxGeometry width="160" height="44" as="geometry">
            <mxRectangle width="160" height="44" as="alternateBounds" />
          </mxGeometry>
        </mxCell>
        <mxCell id="q-_vaqqeLDXGKakdb1CM-30" value="" style="shape=tableRow;horizontal=0;startSize=0;swimlaneHead=0;swimlaneBody=0;strokeColor=inherit;top=0;left=0;bottom=0;right=0;collapsible=0;dropTarget=0;fillColor=none;points=[[0,0.5],[1,0.5]];portConstraint=eastwest;" vertex="1" parent="q-_vaqqeLDXGKakdb1CM-25">
          <mxGeometry y="130" width="160" height="43" as="geometry" />
        </mxCell>
        <mxCell id="q-_vaqqeLDXGKakdb1CM-31" value="控件：具体事件处理函数&lt;br&gt;如：&amp;nbsp;&lt;span style=&quot;background-color: initial;&quot;&gt;mousePressEvent()&lt;/span&gt;" style="shape=partialRectangle;html=1;whiteSpace=wrap;connectable=0;strokeColor=inherit;overflow=hidden;fillColor=none;top=0;left=0;bottom=0;right=0;pointerEvents=1;align=left;" vertex="1" parent="q-_vaqqeLDXGKakdb1CM-30">
          <mxGeometry width="160" height="43" as="geometry">
            <mxRectangle width="160" height="43" as="alternateBounds" />
          </mxGeometry>
        </mxCell>
        <mxCell id="q-_vaqqeLDXGKakdb1CM-32" style="edgeStyle=orthogonalEdgeStyle;rounded=0;orthogonalLoop=1;jettySize=auto;html=1;exitX=1;exitY=0.5;exitDx=0;exitDy=0;" edge="1" parent="1" source="q-_vaqqeLDXGKakdb1CM-14" target="q-_vaqqeLDXGKakdb1CM-21">
          <mxGeometry relative="1" as="geometry" />
        </mxCell>
        <mxCell id="q-_vaqqeLDXGKakdb1CM-39" style="edgeStyle=orthogonalEdgeStyle;rounded=0;orthogonalLoop=1;jettySize=auto;html=1;exitX=1;exitY=0.5;exitDx=0;exitDy=0;entryX=0;entryY=0.5;entryDx=0;entryDy=0;" edge="1" parent="1" source="q-_vaqqeLDXGKakdb1CM-21" target="q-_vaqqeLDXGKakdb1CM-26">
          <mxGeometry relative="1" as="geometry" />
        </mxCell>
        <mxCell id="q-_vaqqeLDXGKakdb1CM-41" value="&lt;font color=&quot;#3399ff&quot;&gt;控件 ignore()后,事件会一层一层往上传&lt;/font&gt;" style="text;html=1;strokeColor=none;fillColor=none;align=center;verticalAlign=middle;whiteSpace=wrap;rounded=0;" vertex="1" parent="1">
          <mxGeometry x="344" y="430" width="140" height="32" as="geometry" />
        </mxCell>
        <mxCell id="q-_vaqqeLDXGKakdb1CM-43" value="" style="endArrow=classic;html=1;rounded=0;" edge="1" parent="1">
          <mxGeometry width="50" height="50" relative="1" as="geometry">
            <mxPoint x="167" y="400" as="sourcePoint" />
            <mxPoint x="167" y="520" as="targetPoint" />
          </mxGeometry>
        </mxCell>
        <mxCell id="q-_vaqqeLDXGKakdb1CM-44" value="&lt;font color=&quot;#3399ff&quot;&gt;某个函数里return true后不会继续往下传&lt;/font&gt;" style="text;html=1;strokeColor=none;fillColor=none;align=center;verticalAlign=middle;whiteSpace=wrap;rounded=0;" vertex="1" parent="1">
          <mxGeometry x="43" y="430" width="120" height="55" as="geometry" />
        </mxCell>
        <mxCell id="q-_vaqqeLDXGKakdb1CM-45" value="三者存在父子关系" style="text;html=1;strokeColor=none;fillColor=none;align=center;verticalAlign=middle;whiteSpace=wrap;rounded=0;" vertex="1" parent="1">
          <mxGeometry x="93" y="170" width="130" height="40" as="geometry" />
        </mxCell>
        <mxCell id="q-_vaqqeLDXGKakdb1CM-46" value="&lt;font color=&quot;#3399ff&quot;&gt;ignore()&amp;nbsp; + return true：会继续往上传给父控件（本控件里某函数return true后后面函数不会执行）&lt;/font&gt;" style="text;html=1;strokeColor=none;fillColor=none;align=center;verticalAlign=middle;whiteSpace=wrap;rounded=0;" vertex="1" parent="1">
          <mxGeometry x="50" y="532" width="380" height="55" as="geometry" />
        </mxCell>
      </root>
    </mxGraphModel>
  </diagram>
</mxfile>
